<mxfile host="app.diagrams.net" modified="2021-10-30T20:27:58.232Z" agent="5.0 (Windows NT 10.0; Win64; x64) AppleWebKit/537.36 (KHTML, like Gecko) Chrome/95.0.4638.54 Safari/537.36" etag="TYb5NbLotNa_EIeK2eWZ" version="15.6.2" type="github">
  <diagram id="js_RON0iSXC88aSPOJ5O" name="Page-1">
    <mxGraphModel dx="1422" dy="794" grid="1" gridSize="10" guides="1" tooltips="1" connect="1" arrows="1" fold="1" page="1" pageScale="1" pageWidth="850" pageHeight="1100" math="0" shadow="0">
      <root>
        <mxCell id="0" />
        <mxCell id="1" parent="0" />
        <mxCell id="7dgOucnESHoZLJwLhFWW-1" value="" style="rounded=0;whiteSpace=wrap;html=1;" vertex="1" parent="1">
          <mxGeometry x="110" y="100" width="540" height="590" as="geometry" />
        </mxCell>
        <mxCell id="7dgOucnESHoZLJwLhFWW-2" value="Local PC" style="text;html=1;strokeColor=none;fillColor=none;align=center;verticalAlign=middle;whiteSpace=wrap;rounded=0;" vertex="1" parent="1">
          <mxGeometry x="130" y="60" width="60" height="30" as="geometry" />
        </mxCell>
        <mxCell id="7dgOucnESHoZLJwLhFWW-4" value="Cluster&lt;br&gt;&lt;br&gt;10.43.0.1" style="rounded=0;whiteSpace=wrap;html=1;" vertex="1" parent="1">
          <mxGeometry x="160" y="180" width="450" height="455" as="geometry" />
        </mxCell>
        <mxCell id="7dgOucnESHoZLJwLhFWW-3" value="Load Balancer x2&lt;br&gt;173.31.0.2&lt;br&gt;8081:8081" style="ellipse;whiteSpace=wrap;html=1;" vertex="1" parent="1">
          <mxGeometry x="290" y="230" width="120" height="80" as="geometry" />
        </mxCell>
        <mxCell id="7dgOucnESHoZLJwLhFWW-5" value="" style="endArrow=classic;startArrow=none;html=1;rounded=0;exitX=1;exitY=0.5;exitDx=0;exitDy=0;" edge="1" parent="1" source="7dgOucnESHoZLJwLhFWW-8" target="7dgOucnESHoZLJwLhFWW-7">
          <mxGeometry width="50" height="50" relative="1" as="geometry">
            <mxPoint x="430" y="380" as="sourcePoint" />
            <mxPoint x="480" y="330" as="targetPoint" />
            <Array as="points">
              <mxPoint x="530" y="240" />
            </Array>
          </mxGeometry>
        </mxCell>
        <mxCell id="7dgOucnESHoZLJwLhFWW-7" value="Mongo Express&lt;br&gt;port:8081&lt;br&gt;173.31.0.3&lt;br&gt;10.43.183.240" style="rounded=1;whiteSpace=wrap;html=1;" vertex="1" parent="1">
          <mxGeometry x="470" y="339.9999999999999" width="120" height="60" as="geometry" />
        </mxCell>
        <mxCell id="7dgOucnESHoZLJwLhFWW-8" value="Exposed Service&lt;br&gt;8081:8081" style="ellipse;whiteSpace=wrap;html=1;aspect=fixed;" vertex="1" parent="1">
          <mxGeometry x="490" y="200" width="80" height="80" as="geometry" />
        </mxCell>
        <mxCell id="7dgOucnESHoZLJwLhFWW-9" value="" style="endArrow=none;startArrow=classic;html=1;rounded=0;exitX=1;exitY=0.5;exitDx=0;exitDy=0;" edge="1" parent="1" source="7dgOucnESHoZLJwLhFWW-3" target="7dgOucnESHoZLJwLhFWW-8">
          <mxGeometry width="50" height="50" relative="1" as="geometry">
            <mxPoint x="440" y="239.9999999999999" as="sourcePoint" />
            <mxPoint x="530" y="339.9999999999999" as="targetPoint" />
            <Array as="points" />
          </mxGeometry>
        </mxCell>
        <mxCell id="7dgOucnESHoZLJwLhFWW-10" value="Mongodb:4.4&lt;br&gt;port:27017&lt;br&gt;10.43.183.150" style="rounded=1;whiteSpace=wrap;html=1;" vertex="1" parent="1">
          <mxGeometry x="190" y="570" width="120" height="60" as="geometry" />
        </mxCell>
        <mxCell id="7dgOucnESHoZLJwLhFWW-11" value="" style="endArrow=classic;startArrow=none;html=1;rounded=0;entryX=0.5;entryY=1;entryDx=0;entryDy=0;exitX=1;exitY=0;exitDx=0;exitDy=0;" edge="1" parent="1" source="7dgOucnESHoZLJwLhFWW-13" target="7dgOucnESHoZLJwLhFWW-7">
          <mxGeometry width="50" height="50" relative="1" as="geometry">
            <mxPoint x="470" y="480" as="sourcePoint" />
            <mxPoint x="520" y="430" as="targetPoint" />
            <Array as="points">
              <mxPoint x="530" y="480" />
            </Array>
          </mxGeometry>
        </mxCell>
        <mxCell id="7dgOucnESHoZLJwLhFWW-13" value="Exposed Service&lt;br&gt;27017:27017" style="ellipse;whiteSpace=wrap;html=1;aspect=fixed;" vertex="1" parent="1">
          <mxGeometry x="460" y="490" width="80" height="80" as="geometry" />
        </mxCell>
        <mxCell id="7dgOucnESHoZLJwLhFWW-14" value="" style="endArrow=none;startArrow=classic;html=1;rounded=0;entryX=0.5;entryY=1;entryDx=0;entryDy=0;" edge="1" parent="1" source="7dgOucnESHoZLJwLhFWW-10" target="7dgOucnESHoZLJwLhFWW-13">
          <mxGeometry width="50" height="50" relative="1" as="geometry">
            <mxPoint x="370" y="540" as="sourcePoint" />
            <mxPoint x="530" y="400" as="targetPoint" />
            <Array as="points" />
          </mxGeometry>
        </mxCell>
        <mxCell id="7dgOucnESHoZLJwLhFWW-15" value="" style="endArrow=classic;html=1;rounded=0;exitX=0.5;exitY=0;exitDx=0;exitDy=0;" edge="1" parent="1" source="7dgOucnESHoZLJwLhFWW-10" target="7dgOucnESHoZLJwLhFWW-16">
          <mxGeometry width="50" height="50" relative="1" as="geometry">
            <mxPoint x="310" y="540" as="sourcePoint" />
            <mxPoint x="360" y="490" as="targetPoint" />
          </mxGeometry>
        </mxCell>
        <mxCell id="7dgOucnESHoZLJwLhFWW-16" value="Mapping URL:&lt;br&gt;&quot;database_url&quot;" style="rounded=1;whiteSpace=wrap;html=1;" vertex="1" parent="1">
          <mxGeometry x="230" y="460" width="120" height="60" as="geometry" />
        </mxCell>
        <mxCell id="7dgOucnESHoZLJwLhFWW-17" value="" style="endArrow=classic;startArrow=classic;html=1;rounded=0;exitX=1;exitY=0.25;exitDx=0;exitDy=0;" edge="1" parent="1" source="7dgOucnESHoZLJwLhFWW-16">
          <mxGeometry width="50" height="50" relative="1" as="geometry">
            <mxPoint x="420" y="430" as="sourcePoint" />
            <mxPoint x="470" y="380" as="targetPoint" />
            <Array as="points">
              <mxPoint x="440" y="470" />
            </Array>
          </mxGeometry>
        </mxCell>
        <mxCell id="7dgOucnESHoZLJwLhFWW-18" value="" style="endArrow=classic;startArrow=classic;html=1;rounded=0;exitX=0.5;exitY=0;exitDx=0;exitDy=0;" edge="1" parent="1" source="7dgOucnESHoZLJwLhFWW-3" target="7dgOucnESHoZLJwLhFWW-4">
          <mxGeometry width="50" height="50" relative="1" as="geometry">
            <mxPoint x="370" y="240" as="sourcePoint" />
            <mxPoint x="420" y="190" as="targetPoint" />
          </mxGeometry>
        </mxCell>
        <mxCell id="7dgOucnESHoZLJwLhFWW-19" value="" style="endArrow=classic;startArrow=classic;html=1;rounded=0;exitX=0.389;exitY=-0.003;exitDx=0;exitDy=0;exitPerimeter=0;" edge="1" parent="1" source="7dgOucnESHoZLJwLhFWW-4" target="7dgOucnESHoZLJwLhFWW-1">
          <mxGeometry width="50" height="50" relative="1" as="geometry">
            <mxPoint x="375" y="160" as="sourcePoint" />
            <mxPoint x="425" y="110" as="targetPoint" />
          </mxGeometry>
        </mxCell>
        <mxCell id="7dgOucnESHoZLJwLhFWW-20" value="Access via localhost or 127.0.0.1" style="text;html=1;strokeColor=none;fillColor=none;align=center;verticalAlign=middle;whiteSpace=wrap;rounded=0;" vertex="1" parent="1">
          <mxGeometry x="380" y="140" width="190" height="30" as="geometry" />
        </mxCell>
        <mxCell id="7dgOucnESHoZLJwLhFWW-21" value="Access via intranet IP:8081" style="text;html=1;strokeColor=none;fillColor=none;align=center;verticalAlign=middle;whiteSpace=wrap;rounded=0;" vertex="1" parent="1">
          <mxGeometry x="300" y="60" width="190" height="30" as="geometry" />
        </mxCell>
      </root>
    </mxGraphModel>
  </diagram>
</mxfile>
